<?xml version="1.0" encoding="UTF-8"?>
<!-- Generated by Pixelmator Pro 2.4.3 -->
<svg width="1920" height="1080" viewBox="0 0 1920 1080" xmlns="http://www.w3.org/2000/svg" xmlns:xlink="http://www.w3.org/1999/xlink">
    <path id="path1" fill="#000000" stroke="none" d="M -0 0 L 1920 0 L 1920 1080 L -0 1080 Z"/>
    <linearGradient id="linearGradient1" x1="-0" y1="1080" x2="-0" y2="0" gradientUnits="userSpaceOnUse">
        <stop offset="1e-05" stop-color="#000000" stop-opacity="1"/>
        <stop offset="0.5" stop-color="#00008b" stop-opacity="1"/>
        <stop offset="1" stop-color="#000000" stop-opacity="1"/>
    </linearGradient>
    <path id="path2" fill="url(#linearGradient1)" stroke="none" d="M -0 0 L 1920 0 L 1920 1080 L -0 1080 Z"/>
    <path id="path3" fill="#ffffff" stroke="none" opacity="0.01" d="M 3.243243 3.75 L 4.540541 3.75 L 4.540541 4.5 L 3.891892 4.5 L 3.891892 5.25 L 4.540541 5.25 L 4.540541 6 L 3.243243 6 Z M 2.594594 2.25 L 5.189189 2.25 L 5.189189 3 L 5.837838 3 L 5.837838 6.75 L 5.189189 6.75 L 5.189189 7.5 L 2.594594 7.5 L 2.594594 6.75 L 1.945946 6.75 L 1.945946 3 L 2.594594 3 L 2.594594 6.75 L 5.189189 6.75 L 5.189189 3 L 2.594594 3 Z M 7.135135 3 L 7.783784 3 L 7.783784 4.5 L 8.432432 4.5 L 8.432432 3 L 9.081081 3 L 9.081081 4.5 L 8.432432 4.5 L 8.432432 5.25 L 9.081081 5.25 L 9.081081 6.75 L 8.432432 6.75 L 8.432432 5.25 L 7.783784 5.25 L 7.783784 6.75 L 7.135135 6.75 L 7.135135 5.25 L 7.783784 5.25 L 7.783784 4.5 L 7.135135 4.5 Z M 9.72973 3 L 12.972973 3 L 12.972973 6.75 L 12.324325 6.75 L 12.324325 3.75 L 11.675675 3.75 L 11.675675 6.75 L 11.027027 6.75 L 11.027027 3.75 L 10.378378 3.75 L 10.378378 6.75 L 9.72973 6.75 Z M 13.621622 3 L 15.567568 3 L 14.918919 3.75 L 14.27027 3.75 L 14.27027 6 L 14.918919 6 L 14.918919 3.75 L 15.567568 3 L 15.567568 6.75 L 14.27027 6.75 L 14.27027 8.25 L 13.621622 8.25 Z M 16.216217 1.5 L 16.864864 1.5 L 16.864864 6 L 17.513514 6 L 17.513514 6.75 L 16.216217 6.75 Z M 18.162163 3 L 20.108109 3 L 19.459459 3.75 L 18.81081 3.75 L 18.81081 4.5 L 19.459459 4.5 L 19.459459 3.75 L 20.108109 3 L 20.108109 5.25 L 18.81081 5.25 L 18.81081 6 L 20.108109 6 L 20.108109 6.75 L 18.162163 6.75 L 18.162163 3 Z M 20.756756 6 L 21.405405 6 L 21.405405 6.75 L 20.756756 6.75 Z M 22.054054 3 L 24 3 L 24 3.75 L 22.702703 3.75 L 22.702703 6 L 24 6 L 24 6.75 L 22.054054 6.75 Z M 24.648649 3 L 26.594595 3 L 26.594595 6.75 L 24.648649 6.75 L 25.297297 6 L 25.945946 6 L 25.945946 3.75 L 25.297297 3.75 L 25.297297 6 L 24.648649 6.75 Z M 27.243244 3 L 30.486486 3 L 30.486486 6.75 L 29.837837 6.75 L 29.837837 3.75 L 29.18919 3.75 L 29.18919 6.75 L 28.540541 6.75 L 28.540541 3.75 L 27.891891 3.75 L 27.891891 6.75 L 27.243244 6.75 Z"/>
    <text id="-xmplecom" opacity="0.01" xml:space="preserve" x="-1" y="1077" font-family="Times New Roman" font-size="8.391892" fill="#ffffff">© xmple.com</text>
    <g id="g1">
        <text id="xmplecom" opacity="0.01" xml:space="preserve" x="1874.478245" y="18" font-family="Times New Roman" font-size="8.391892" fill="#ffffff">xmple.com</text>
    </g>
</svg>
